# xmcd
#
# Track frame offsets:
#	150
#	24365
#	44795
#	94520
#	126225
#	160915
#
# Disc length: 2551 seconds
#
# Revision: 1
# Processed by: cddbd v1.5.1PL2 Copyright (c) Steve Scherf et al.
# Submitted via: EasyCDDAExtractor 9.0.0.1
#
DISCID=4709f506
DTITLE=Dio - Garage Saarbrucken 28-05-06 Disc 2
DYEAR=2006
DGENRE=Hard Rock
TTITLE0=Man On The Silver Mountain
TTITLE1=Long Live Rock and Roll
TTITLE2=Heaven and Hell
TTITLE3=We Rock
TTITLE4=The Last In Line
TTITLE5=The Mob Rules
EXTD=
EXTT0=
EXTT1=
EXTT2=
EXTT3=
EXTT4=
EXTT5=
PLAYORDER=
